<svg xmlns="http://www.w3.org/2000/svg" viewBox="0 0 400 120" width="400" height="120">
  <defs>
    <linearGradient id="bg2" x1="0%" y1="0%" x2="100%" y2="100%">
      <stop offset="0%" style="stop-color:#3b82f6;stop-opacity:1" />
      <stop offset="100%" style="stop-color:#60a5fa;stop-opacity:1" />
    </linearGradient>
  </defs>
  <!-- Icon circle with car -->
  <circle cx="48" cy="48" r="38" fill="url(#bg2)"/>
  <!-- Car body -->
  <path d="M28 42h40l6 10h8v8h-6l-4 8H24l-4-8h-6v-8h6z" fill="#0f172a" stroke="#0f172a" stroke-width="2"/>
  <!-- Windows -->
  <rect x="40" y="30" width="12" height="10" rx="2" fill="#3b82f6"/>
  <rect x="54" y="30" width="14" height="10" rx="2" fill="#3b82f6"/>
  <!-- Wheels -->
  <circle cx="34" cy="58" r="7" fill="#e2e8f0" stroke="#3b82f6" stroke-width="3"/>
  <circle cx="62" cy="58" r="7" fill="#e2e8f0" stroke="#3b82f6" stroke-width="3"/>
  <!-- Wheel hubs -->
  <circle cx="34" cy="58" r="3" fill="#94a3b8"/>
  <circle cx="62" cy="58" r="3" fill="#94a3b8"/>
  <!-- Headlight -->
  <rect x="72" y="44" width="4" height="4" rx="1" fill="#fbbf24"/>
  <!-- Wrench icon floating -->
  <path d="M88 30l-8 8 6 6 8-8zM84 34c-2 2-2 6 0 8" fill="none" stroke="#e2e8f0" stroke-width="2.5" stroke-linecap="round"/>
  
  <!-- Text -->
  <text x="110" y="45" font-family="system-ui, -apple-system, sans-serif" font-size="32" font-weight="bold" fill="#f1f5f9">Pesso</text>
  <text x="224" y="45" font-family="system-ui, -apple-system, sans-serif" font-size="32" font-weight="bold" fill="#60a5fa">Auto</text>
  <text x="110" y="65" font-family="system-ui, -apple-system, sans-serif" font-size="11" fill="#94a3b8" letter-spacing="4">CONTROLE DE MANUTENCAO VEICULAR</text>
</svg>
